<mxfile host="app.diagrams.net" modified="2023-12-23T08:21:13.758Z" agent="Mozilla/5.0 (Windows NT 10.0; Win64; x64) AppleWebKit/537.36 (KHTML, like Gecko) Chrome/120.0.0.0 Safari/537.36" etag="OkaaXjtCXbYRYgjrlVVY" version="22.1.11" type="device">
  <diagram name="Page-1" id="1WDqgXkMvDE3ou7cJ84F">
    <mxGraphModel dx="2693" dy="796" grid="1" gridSize="10" guides="1" tooltips="1" connect="1" arrows="1" fold="1" page="1" pageScale="1" pageWidth="850" pageHeight="1100" math="0" shadow="0">
      <root>
        <mxCell id="0" />
        <mxCell id="1" parent="0" />
        <mxCell id="geZDU8rb3LCOGiETENGQ-1" value="ID kartu : 32 bit" style="text;html=1;strokeColor=none;fillColor=none;align=left;verticalAlign=middle;whiteSpace=wrap;rounded=0;" parent="1" vertex="1">
          <mxGeometry x="30" y="40" width="100" height="30" as="geometry" />
        </mxCell>
        <mxCell id="geZDU8rb3LCOGiETENGQ-3" value="Timestamp unix : 32 bit" style="text;html=1;strokeColor=none;fillColor=none;align=center;verticalAlign=middle;whiteSpace=wrap;rounded=0;" parent="1" vertex="1">
          <mxGeometry x="30" y="70" width="130" height="30" as="geometry" />
        </mxCell>
        <mxCell id="geZDU8rb3LCOGiETENGQ-4" value="Opcode : 3 bit" style="text;html=1;strokeColor=none;fillColor=none;align=left;verticalAlign=middle;whiteSpace=wrap;rounded=0;" parent="1" vertex="1">
          <mxGeometry x="30" y="100" width="130" height="30" as="geometry" />
        </mxCell>
        <mxCell id="geZDU8rb3LCOGiETENGQ-7" value="000 remove&amp;nbsp; (buat ngehapus di memori kalau udh keluar)&lt;br&gt;001 sub&amp;nbsp; (cari selisih timestamp sama saldo baru)&lt;br&gt;010 mul&amp;nbsp; (cari harga yg perlu dibayar)&lt;br&gt;011 put&amp;nbsp; (nyimpen data baru masuk)&lt;br&gt;100 mov (pindah&quot; in)&lt;br&gt;101 save txt (nyimpen transaksi di file txt)&lt;br&gt;110 get memory/register (ambil data dari memory apa register)&lt;br&gt;111 set time (ubah timestamp pada saat itu)" style="text;html=1;strokeColor=none;fillColor=none;align=left;verticalAlign=middle;whiteSpace=wrap;rounded=0;" parent="1" vertex="1">
          <mxGeometry x="30" y="130" width="360" height="120" as="geometry" />
        </mxCell>
        <mxCell id="geZDU8rb3LCOGiETENGQ-9" value="" style="swimlane;startSize=0;" parent="1" vertex="1">
          <mxGeometry x="20" y="40" width="370" height="240" as="geometry" />
        </mxCell>
        <mxCell id="geZDU8rb3LCOGiETENGQ-11" value="CPU" style="text;html=1;strokeColor=none;fillColor=none;align=center;verticalAlign=middle;whiteSpace=wrap;rounded=0;" parent="1" vertex="1">
          <mxGeometry x="20" y="10" width="120" height="30" as="geometry" />
        </mxCell>
        <mxCell id="geZDU8rb3LCOGiETENGQ-16" value="" style="swimlane;startSize=0;" parent="1" vertex="1">
          <mxGeometry x="540" y="130" width="300" height="70" as="geometry" />
        </mxCell>
        <mxCell id="geZDU8rb3LCOGiETENGQ-18" value="menyimpan timestamp masuk dan id kartu&lt;br&gt;&amp;nbsp;" style="text;html=1;strokeColor=none;fillColor=none;align=left;verticalAlign=middle;whiteSpace=wrap;rounded=0;" parent="geZDU8rb3LCOGiETENGQ-16" vertex="1">
          <mxGeometry width="275" height="30" as="geometry" />
        </mxCell>
        <mxCell id="geZDU8rb3LCOGiETENGQ-19" value="vector 32 ubit (dari 32 + 32) dengan address 8 bit" style="text;html=1;strokeColor=none;fillColor=none;align=left;verticalAlign=middle;whiteSpace=wrap;rounded=0;" parent="geZDU8rb3LCOGiETENGQ-16" vertex="1">
          <mxGeometry y="30" width="270" height="30" as="geometry" />
        </mxCell>
        <mxCell id="geZDU8rb3LCOGiETENGQ-17" value="memory" style="text;html=1;strokeColor=none;fillColor=none;align=center;verticalAlign=middle;whiteSpace=wrap;rounded=0;" parent="1" vertex="1">
          <mxGeometry x="540" y="100" width="120" height="30" as="geometry" />
        </mxCell>
        <mxCell id="geZDU8rb3LCOGiETENGQ-20" value="" style="swimlane;startSize=0;" parent="1" vertex="1">
          <mxGeometry x="-370" y="50" width="300" height="70" as="geometry" />
        </mxCell>
        <mxCell id="geZDU8rb3LCOGiETENGQ-21" value="Memberi instruction masuk" style="text;html=1;strokeColor=none;fillColor=none;align=left;verticalAlign=middle;whiteSpace=wrap;rounded=0;" parent="geZDU8rb3LCOGiETENGQ-20" vertex="1">
          <mxGeometry width="275" height="30" as="geometry" />
        </mxCell>
        <mxCell id="geZDU8rb3LCOGiETENGQ-22" value="ada function buat convert unix timetstamp" style="text;html=1;strokeColor=none;fillColor=none;align=left;verticalAlign=middle;whiteSpace=wrap;rounded=0;" parent="geZDU8rb3LCOGiETENGQ-20" vertex="1">
          <mxGeometry y="30" width="260" height="30" as="geometry" />
        </mxCell>
        <mxCell id="geZDU8rb3LCOGiETENGQ-23" value="Interface masuk" style="text;html=1;strokeColor=none;fillColor=none;align=center;verticalAlign=middle;whiteSpace=wrap;rounded=0;" parent="1" vertex="1">
          <mxGeometry x="-370" y="20" width="120" height="30" as="geometry" />
        </mxCell>
        <mxCell id="geZDU8rb3LCOGiETENGQ-24" value="" style="swimlane;startSize=0;" parent="1" vertex="1">
          <mxGeometry x="-370" y="190" width="300" height="70" as="geometry" />
        </mxCell>
        <mxCell id="geZDU8rb3LCOGiETENGQ-25" value="Memberi instruction keluar" style="text;html=1;strokeColor=none;fillColor=none;align=left;verticalAlign=middle;whiteSpace=wrap;rounded=0;" parent="geZDU8rb3LCOGiETENGQ-24" vertex="1">
          <mxGeometry width="275" height="30" as="geometry" />
        </mxCell>
        <mxCell id="geZDU8rb3LCOGiETENGQ-26" value="ada function buat convert unix timestamp" style="text;html=1;strokeColor=none;fillColor=none;align=left;verticalAlign=middle;whiteSpace=wrap;rounded=0;" parent="geZDU8rb3LCOGiETENGQ-24" vertex="1">
          <mxGeometry y="30" width="260" height="30" as="geometry" />
        </mxCell>
        <mxCell id="geZDU8rb3LCOGiETENGQ-27" value="Interface keluar" style="text;html=1;strokeColor=none;fillColor=none;align=center;verticalAlign=middle;whiteSpace=wrap;rounded=0;" parent="1" vertex="1">
          <mxGeometry x="-370" y="160" width="120" height="30" as="geometry" />
        </mxCell>
        <mxCell id="wEV3beaxD2OYFlqm1hYh-1" value="" style="endArrow=classic;html=1;rounded=0;exitX=1;exitY=0.5;exitDx=0;exitDy=0;entryX=0;entryY=0.75;entryDx=0;entryDy=0;" edge="1" parent="1" source="geZDU8rb3LCOGiETENGQ-24" target="geZDU8rb3LCOGiETENGQ-9">
          <mxGeometry width="50" height="50" relative="1" as="geometry">
            <mxPoint x="90" y="310" as="sourcePoint" />
            <mxPoint x="140" y="260" as="targetPoint" />
          </mxGeometry>
        </mxCell>
        <mxCell id="wEV3beaxD2OYFlqm1hYh-2" value="" style="endArrow=classic;html=1;rounded=0;exitX=1;exitY=0.5;exitDx=0;exitDy=0;entryX=0;entryY=0.25;entryDx=0;entryDy=0;" edge="1" parent="1" source="geZDU8rb3LCOGiETENGQ-20" target="geZDU8rb3LCOGiETENGQ-9">
          <mxGeometry width="50" height="50" relative="1" as="geometry">
            <mxPoint x="90" y="290" as="sourcePoint" />
            <mxPoint x="140" y="240" as="targetPoint" />
          </mxGeometry>
        </mxCell>
        <mxCell id="wEV3beaxD2OYFlqm1hYh-3" value="utamain keluar" style="text;html=1;strokeColor=none;fillColor=none;align=center;verticalAlign=middle;whiteSpace=wrap;rounded=0;" vertex="1" parent="1">
          <mxGeometry x="-60" y="230" width="60" height="30" as="geometry" />
        </mxCell>
        <mxCell id="wEV3beaxD2OYFlqm1hYh-4" value="" style="endArrow=classic;html=1;rounded=0;exitX=1;exitY=0.5;exitDx=0;exitDy=0;entryX=0;entryY=0;entryDx=0;entryDy=0;" edge="1" parent="1" source="geZDU8rb3LCOGiETENGQ-9" target="geZDU8rb3LCOGiETENGQ-19">
          <mxGeometry width="50" height="50" relative="1" as="geometry">
            <mxPoint x="350" y="260" as="sourcePoint" />
            <mxPoint x="400" y="210" as="targetPoint" />
          </mxGeometry>
        </mxCell>
        <mxCell id="wEV3beaxD2OYFlqm1hYh-5" value="memory address&amp;nbsp;" style="text;html=1;strokeColor=none;fillColor=none;align=center;verticalAlign=middle;whiteSpace=wrap;rounded=0;" vertex="1" parent="1">
          <mxGeometry x="395" y="130" width="60" height="30" as="geometry" />
        </mxCell>
        <mxCell id="wEV3beaxD2OYFlqm1hYh-6" value="" style="endArrow=classic;html=1;rounded=0;exitX=0;exitY=0.75;exitDx=0;exitDy=0;" edge="1" parent="1" source="geZDU8rb3LCOGiETENGQ-19" target="geZDU8rb3LCOGiETENGQ-7">
          <mxGeometry width="50" height="50" relative="1" as="geometry">
            <mxPoint x="350" y="260" as="sourcePoint" />
            <mxPoint x="400" y="210" as="targetPoint" />
          </mxGeometry>
        </mxCell>
        <mxCell id="wEV3beaxD2OYFlqm1hYh-7" value="vector 40 bit" style="text;html=1;strokeColor=none;fillColor=none;align=center;verticalAlign=middle;whiteSpace=wrap;rounded=0;" vertex="1" parent="1">
          <mxGeometry x="405" y="190" width="95" height="30" as="geometry" />
        </mxCell>
        <mxCell id="wEV3beaxD2OYFlqm1hYh-10" value="" style="rounded=0;whiteSpace=wrap;html=1;fillColor=none;" vertex="1" parent="1">
          <mxGeometry x="-5" y="500" width="315" height="430" as="geometry" />
        </mxCell>
        <mxCell id="wEV3beaxD2OYFlqm1hYh-12" value="MEM_ADDR" style="text;html=1;strokeColor=none;fillColor=none;align=left;verticalAlign=middle;whiteSpace=wrap;rounded=0;" vertex="1" parent="1">
          <mxGeometry x="200" y="510" width="80" height="30" as="geometry" />
        </mxCell>
        <mxCell id="wEV3beaxD2OYFlqm1hYh-13" value="MEM_DATA_IN" style="text;html=1;strokeColor=none;fillColor=none;align=left;verticalAlign=middle;whiteSpace=wrap;rounded=0;" vertex="1" parent="1">
          <mxGeometry x="200" y="540" width="85" height="30" as="geometry" />
        </mxCell>
        <mxCell id="wEV3beaxD2OYFlqm1hYh-14" value="MEM_WR" style="text;html=1;strokeColor=none;fillColor=none;align=left;verticalAlign=middle;whiteSpace=wrap;rounded=0;" vertex="1" parent="1">
          <mxGeometry x="200" y="570" width="85" height="30" as="geometry" />
        </mxCell>
        <mxCell id="wEV3beaxD2OYFlqm1hYh-15" value="MEM_DATA_OUT" style="text;html=1;strokeColor=none;fillColor=none;align=left;verticalAlign=middle;whiteSpace=wrap;rounded=0;" vertex="1" parent="1">
          <mxGeometry x="200" y="600" width="100" height="30" as="geometry" />
        </mxCell>
        <mxCell id="wEV3beaxD2OYFlqm1hYh-20" value="INSTRUCTION1" style="text;html=1;strokeColor=none;fillColor=none;align=left;verticalAlign=middle;whiteSpace=wrap;rounded=0;" vertex="1" parent="1">
          <mxGeometry x="5" y="510" width="100" height="30" as="geometry" />
        </mxCell>
        <mxCell id="wEV3beaxD2OYFlqm1hYh-21" value="DATA_IN1" style="text;html=1;strokeColor=none;fillColor=none;align=left;verticalAlign=middle;whiteSpace=wrap;rounded=0;" vertex="1" parent="1">
          <mxGeometry x="5" y="540" width="100" height="30" as="geometry" />
        </mxCell>
        <mxCell id="wEV3beaxD2OYFlqm1hYh-22" value="PROCESSING1" style="text;html=1;strokeColor=none;fillColor=none;align=left;verticalAlign=middle;whiteSpace=wrap;rounded=0;" vertex="1" parent="1">
          <mxGeometry x="5" y="570" width="100" height="30" as="geometry" />
        </mxCell>
        <mxCell id="wEV3beaxD2OYFlqm1hYh-23" value="WANT_TO_USE1" style="text;html=1;strokeColor=none;fillColor=none;align=left;verticalAlign=middle;whiteSpace=wrap;rounded=0;" vertex="1" parent="1">
          <mxGeometry x="5" y="600" width="100" height="30" as="geometry" />
        </mxCell>
        <mxCell id="wEV3beaxD2OYFlqm1hYh-24" value="CPU_NOT_READY1" style="text;html=1;strokeColor=none;fillColor=none;align=left;verticalAlign=middle;whiteSpace=wrap;rounded=0;" vertex="1" parent="1">
          <mxGeometry x="5" y="630" width="110" height="30" as="geometry" />
        </mxCell>
        <mxCell id="wEV3beaxD2OYFlqm1hYh-25" value="INSTRUCTION2" style="text;html=1;strokeColor=none;fillColor=none;align=left;verticalAlign=middle;whiteSpace=wrap;rounded=0;" vertex="1" parent="1">
          <mxGeometry x="5" y="750" width="100" height="30" as="geometry" />
        </mxCell>
        <mxCell id="wEV3beaxD2OYFlqm1hYh-26" value="DATA_IN2" style="text;html=1;strokeColor=none;fillColor=none;align=left;verticalAlign=middle;whiteSpace=wrap;rounded=0;" vertex="1" parent="1">
          <mxGeometry x="5" y="780" width="100" height="30" as="geometry" />
        </mxCell>
        <mxCell id="wEV3beaxD2OYFlqm1hYh-27" value="PROCESSING2" style="text;html=1;strokeColor=none;fillColor=none;align=left;verticalAlign=middle;whiteSpace=wrap;rounded=0;" vertex="1" parent="1">
          <mxGeometry x="5" y="810" width="100" height="30" as="geometry" />
        </mxCell>
        <mxCell id="wEV3beaxD2OYFlqm1hYh-28" value="WANT_TO_USE2" style="text;html=1;strokeColor=none;fillColor=none;align=left;verticalAlign=middle;whiteSpace=wrap;rounded=0;" vertex="1" parent="1">
          <mxGeometry x="5" y="840" width="100" height="30" as="geometry" />
        </mxCell>
        <mxCell id="wEV3beaxD2OYFlqm1hYh-29" value="CPU_NOT_READY2" style="text;html=1;strokeColor=none;fillColor=none;align=left;verticalAlign=middle;whiteSpace=wrap;rounded=0;" vertex="1" parent="1">
          <mxGeometry x="5" y="870" width="110" height="30" as="geometry" />
        </mxCell>
        <mxCell id="wEV3beaxD2OYFlqm1hYh-31" value="" style="rounded=0;whiteSpace=wrap;html=1;fillColor=none;" vertex="1" parent="1">
          <mxGeometry x="-320" y="500" width="130" height="210" as="geometry" />
        </mxCell>
        <mxCell id="wEV3beaxD2OYFlqm1hYh-32" value="CPU" style="text;html=1;strokeColor=none;fillColor=none;align=left;verticalAlign=middle;whiteSpace=wrap;rounded=0;" vertex="1" parent="1">
          <mxGeometry x="-5" y="470" width="100" height="30" as="geometry" />
        </mxCell>
        <mxCell id="wEV3beaxD2OYFlqm1hYh-33" value="INSTRUCTION" style="text;html=1;strokeColor=none;fillColor=none;align=left;verticalAlign=middle;whiteSpace=wrap;rounded=0;" vertex="1" parent="1">
          <mxGeometry x="-310" y="515" width="100" height="30" as="geometry" />
        </mxCell>
        <mxCell id="wEV3beaxD2OYFlqm1hYh-34" value="DATA_IN" style="text;html=1;strokeColor=none;fillColor=none;align=left;verticalAlign=middle;whiteSpace=wrap;rounded=0;" vertex="1" parent="1">
          <mxGeometry x="-310" y="545" width="100" height="30" as="geometry" />
        </mxCell>
        <mxCell id="wEV3beaxD2OYFlqm1hYh-35" value="PROCESSING" style="text;html=1;strokeColor=none;fillColor=none;align=left;verticalAlign=middle;whiteSpace=wrap;rounded=0;" vertex="1" parent="1">
          <mxGeometry x="-310" y="575" width="100" height="30" as="geometry" />
        </mxCell>
        <mxCell id="wEV3beaxD2OYFlqm1hYh-36" value="WANT_TO_USE" style="text;html=1;strokeColor=none;fillColor=none;align=left;verticalAlign=middle;whiteSpace=wrap;rounded=0;" vertex="1" parent="1">
          <mxGeometry x="-310" y="605" width="100" height="30" as="geometry" />
        </mxCell>
        <mxCell id="wEV3beaxD2OYFlqm1hYh-37" value="CPU_NOT_READY" style="text;html=1;strokeColor=none;fillColor=none;align=left;verticalAlign=middle;whiteSpace=wrap;rounded=0;" vertex="1" parent="1">
          <mxGeometry x="-310" y="635" width="110" height="30" as="geometry" />
        </mxCell>
        <mxCell id="wEV3beaxD2OYFlqm1hYh-38" value="INTERFACE1 (Masuk)" style="text;html=1;strokeColor=none;fillColor=none;align=left;verticalAlign=middle;whiteSpace=wrap;rounded=0;" vertex="1" parent="1">
          <mxGeometry x="-320" y="470" width="130" height="30" as="geometry" />
        </mxCell>
        <mxCell id="wEV3beaxD2OYFlqm1hYh-39" value="" style="endArrow=classic;html=1;rounded=0;exitX=0.995;exitY=0.134;exitDx=0;exitDy=0;exitPerimeter=0;entryX=0.002;entryY=0.066;entryDx=0;entryDy=0;entryPerimeter=0;" edge="1" parent="1" source="wEV3beaxD2OYFlqm1hYh-31" target="wEV3beaxD2OYFlqm1hYh-10">
          <mxGeometry width="50" height="50" relative="1" as="geometry">
            <mxPoint x="-210" y="650" as="sourcePoint" />
            <mxPoint x="-160" y="600" as="targetPoint" />
          </mxGeometry>
        </mxCell>
        <mxCell id="wEV3beaxD2OYFlqm1hYh-55" value="1 ketika state bukan standby, 0 ketika state standby" style="text;strokeColor=none;fillColor=none;align=left;verticalAlign=middle;spacingLeft=4;spacingRight=4;overflow=hidden;points=[[0,0.5],[1,0.5]];portConstraint=eastwest;rotatable=0;whiteSpace=wrap;html=1;" vertex="1" parent="1">
          <mxGeometry x="-630" y="575" width="310" height="30" as="geometry" />
        </mxCell>
        <mxCell id="wEV3beaxD2OYFlqm1hYh-56" value="Ingin menggunakan CPU" style="text;strokeColor=none;fillColor=none;align=left;verticalAlign=middle;spacingLeft=4;spacingRight=4;overflow=hidden;points=[[0,0.5],[1,0.5]];portConstraint=eastwest;rotatable=0;whiteSpace=wrap;html=1;" vertex="1" parent="1">
          <mxGeometry x="-630" y="605" width="290" height="30" as="geometry" />
        </mxCell>
        <mxCell id="wEV3beaxD2OYFlqm1hYh-57" value="Jika 1 jangan berganti state" style="text;strokeColor=none;fillColor=none;align=left;verticalAlign=middle;spacingLeft=4;spacingRight=4;overflow=hidden;points=[[0,0.5],[1,0.5]];portConstraint=eastwest;rotatable=0;whiteSpace=wrap;html=1;" vertex="1" parent="1">
          <mxGeometry x="-630" y="635" width="290" height="30" as="geometry" />
        </mxCell>
        <mxCell id="wEV3beaxD2OYFlqm1hYh-58" value="" style="endArrow=classic;html=1;rounded=0;exitX=1.014;exitY=0.292;exitDx=0;exitDy=0;exitPerimeter=0;entryX=0.003;entryY=0.142;entryDx=0;entryDy=0;entryPerimeter=0;" edge="1" parent="1" source="wEV3beaxD2OYFlqm1hYh-31" target="wEV3beaxD2OYFlqm1hYh-10">
          <mxGeometry width="50" height="50" relative="1" as="geometry">
            <mxPoint x="10" y="730" as="sourcePoint" />
            <mxPoint x="60" y="680" as="targetPoint" />
          </mxGeometry>
        </mxCell>
        <mxCell id="wEV3beaxD2OYFlqm1hYh-59" value="" style="endArrow=classic;html=1;rounded=0;entryX=-0.003;entryY=0.202;entryDx=0;entryDy=0;entryPerimeter=0;" edge="1" parent="1" target="wEV3beaxD2OYFlqm1hYh-10">
          <mxGeometry width="50" height="50" relative="1" as="geometry">
            <mxPoint x="-190" y="587" as="sourcePoint" />
            <mxPoint x="70" y="620" as="targetPoint" />
          </mxGeometry>
        </mxCell>
        <mxCell id="wEV3beaxD2OYFlqm1hYh-60" value="" style="endArrow=classic;html=1;rounded=0;entryX=-0.006;entryY=0.212;entryDx=0;entryDy=0;entryPerimeter=0;" edge="1" parent="1">
          <mxGeometry width="50" height="50" relative="1" as="geometry">
            <mxPoint x="-190" y="619.63" as="sourcePoint" />
            <mxPoint x="-7" y="619.63" as="targetPoint" />
          </mxGeometry>
        </mxCell>
        <mxCell id="wEV3beaxD2OYFlqm1hYh-61" value="" style="endArrow=classic;html=1;rounded=0;exitX=-0.003;exitY=0.345;exitDx=0;exitDy=0;exitPerimeter=0;entryX=1.001;entryY=0.704;entryDx=0;entryDy=0;entryPerimeter=0;" edge="1" parent="1" source="wEV3beaxD2OYFlqm1hYh-10" target="wEV3beaxD2OYFlqm1hYh-31">
          <mxGeometry width="50" height="50" relative="1" as="geometry">
            <mxPoint x="-188" y="649.63" as="sourcePoint" />
            <mxPoint x="-190" y="650" as="targetPoint" />
          </mxGeometry>
        </mxCell>
        <mxCell id="wEV3beaxD2OYFlqm1hYh-62" value="DATA_OUT1" style="text;html=1;strokeColor=none;fillColor=none;align=left;verticalAlign=middle;whiteSpace=wrap;rounded=0;" vertex="1" parent="1">
          <mxGeometry x="5" y="660" width="110" height="30" as="geometry" />
        </mxCell>
        <mxCell id="wEV3beaxD2OYFlqm1hYh-64" value="DATA_OUT" style="text;html=1;strokeColor=none;fillColor=none;align=left;verticalAlign=middle;whiteSpace=wrap;rounded=0;" vertex="1" parent="1">
          <mxGeometry x="-315" y="665" width="110" height="30" as="geometry" />
        </mxCell>
        <mxCell id="wEV3beaxD2OYFlqm1hYh-65" value="" style="endArrow=classic;html=1;rounded=0;entryX=1.019;entryY=0.86;entryDx=0;entryDy=0;entryPerimeter=0;exitX=-0.001;exitY=0.419;exitDx=0;exitDy=0;exitPerimeter=0;" edge="1" parent="1" source="wEV3beaxD2OYFlqm1hYh-10" target="wEV3beaxD2OYFlqm1hYh-31">
          <mxGeometry width="50" height="50" relative="1" as="geometry">
            <mxPoint x="-220" y="680" as="sourcePoint" />
            <mxPoint x="-170" y="630" as="targetPoint" />
          </mxGeometry>
        </mxCell>
        <mxCell id="wEV3beaxD2OYFlqm1hYh-66" value="9" style="text;html=1;strokeColor=none;fillColor=none;align=center;verticalAlign=middle;whiteSpace=wrap;rounded=0;" vertex="1" parent="1">
          <mxGeometry x="-140" y="500" width="60" height="30" as="geometry" />
        </mxCell>
        <mxCell id="wEV3beaxD2OYFlqm1hYh-67" value="64" style="text;html=1;strokeColor=none;fillColor=none;align=center;verticalAlign=middle;whiteSpace=wrap;rounded=0;" vertex="1" parent="1">
          <mxGeometry x="-140" y="535" width="60" height="30" as="geometry" />
        </mxCell>
        <mxCell id="wEV3beaxD2OYFlqm1hYh-68" value="1" style="text;html=1;strokeColor=none;fillColor=none;align=center;verticalAlign=middle;whiteSpace=wrap;rounded=0;" vertex="1" parent="1">
          <mxGeometry x="-140" y="565" width="60" height="30" as="geometry" />
        </mxCell>
        <mxCell id="wEV3beaxD2OYFlqm1hYh-69" value="1" style="text;html=1;strokeColor=none;fillColor=none;align=center;verticalAlign=middle;whiteSpace=wrap;rounded=0;" vertex="1" parent="1">
          <mxGeometry x="-140" y="595" width="60" height="30" as="geometry" />
        </mxCell>
        <mxCell id="wEV3beaxD2OYFlqm1hYh-70" value="1" style="text;html=1;strokeColor=none;fillColor=none;align=center;verticalAlign=middle;whiteSpace=wrap;rounded=0;" vertex="1" parent="1">
          <mxGeometry x="-140" y="620" width="60" height="30" as="geometry" />
        </mxCell>
        <mxCell id="wEV3beaxD2OYFlqm1hYh-71" value="64" style="text;html=1;strokeColor=none;fillColor=none;align=center;verticalAlign=middle;whiteSpace=wrap;rounded=0;" vertex="1" parent="1">
          <mxGeometry x="-140" y="650" width="60" height="30" as="geometry" />
        </mxCell>
        <mxCell id="wEV3beaxD2OYFlqm1hYh-72" value="31 downto 0&amp;nbsp; timestamp, 61 downto 32 parkiran terpakai" style="text;strokeColor=none;fillColor=none;align=left;verticalAlign=middle;spacingLeft=4;spacingRight=4;overflow=hidden;points=[[0,0.5],[1,0.5]];portConstraint=eastwest;rotatable=0;whiteSpace=wrap;html=1;" vertex="1" parent="1">
          <mxGeometry x="-650" y="665" width="310" height="30" as="geometry" />
        </mxCell>
        <mxCell id="wEV3beaxD2OYFlqm1hYh-91" value="" style="rounded=0;whiteSpace=wrap;html=1;fillColor=none;" vertex="1" parent="1">
          <mxGeometry x="-321" y="740" width="130" height="210" as="geometry" />
        </mxCell>
        <mxCell id="wEV3beaxD2OYFlqm1hYh-92" value="INSTRUCTION" style="text;html=1;strokeColor=none;fillColor=none;align=left;verticalAlign=middle;whiteSpace=wrap;rounded=0;" vertex="1" parent="1">
          <mxGeometry x="-311" y="755" width="100" height="30" as="geometry" />
        </mxCell>
        <mxCell id="wEV3beaxD2OYFlqm1hYh-93" value="DATA_IN" style="text;html=1;strokeColor=none;fillColor=none;align=left;verticalAlign=middle;whiteSpace=wrap;rounded=0;" vertex="1" parent="1">
          <mxGeometry x="-311" y="785" width="100" height="30" as="geometry" />
        </mxCell>
        <mxCell id="wEV3beaxD2OYFlqm1hYh-94" value="PROCESSING" style="text;html=1;strokeColor=none;fillColor=none;align=left;verticalAlign=middle;whiteSpace=wrap;rounded=0;" vertex="1" parent="1">
          <mxGeometry x="-311" y="815" width="100" height="30" as="geometry" />
        </mxCell>
        <mxCell id="wEV3beaxD2OYFlqm1hYh-95" value="WANT_TO_USE" style="text;html=1;strokeColor=none;fillColor=none;align=left;verticalAlign=middle;whiteSpace=wrap;rounded=0;" vertex="1" parent="1">
          <mxGeometry x="-311" y="845" width="100" height="30" as="geometry" />
        </mxCell>
        <mxCell id="wEV3beaxD2OYFlqm1hYh-96" value="CPU_NOT_READY" style="text;html=1;strokeColor=none;fillColor=none;align=left;verticalAlign=middle;whiteSpace=wrap;rounded=0;" vertex="1" parent="1">
          <mxGeometry x="-311" y="875" width="110" height="30" as="geometry" />
        </mxCell>
        <mxCell id="wEV3beaxD2OYFlqm1hYh-97" value="INTERFACE2 (Keluar)" style="text;html=1;strokeColor=none;fillColor=none;align=left;verticalAlign=middle;whiteSpace=wrap;rounded=0;" vertex="1" parent="1">
          <mxGeometry x="-321" y="710" width="130" height="30" as="geometry" />
        </mxCell>
        <mxCell id="wEV3beaxD2OYFlqm1hYh-98" value="" style="endArrow=classic;html=1;rounded=0;exitX=0.995;exitY=0.134;exitDx=0;exitDy=0;exitPerimeter=0;entryX=0.002;entryY=0.066;entryDx=0;entryDy=0;entryPerimeter=0;" edge="1" parent="1" source="wEV3beaxD2OYFlqm1hYh-91">
          <mxGeometry width="50" height="50" relative="1" as="geometry">
            <mxPoint x="-211" y="890" as="sourcePoint" />
            <mxPoint x="-5" y="767" as="targetPoint" />
          </mxGeometry>
        </mxCell>
        <mxCell id="wEV3beaxD2OYFlqm1hYh-99" value="1 ketika state bukan standby, 0 ketika state standby" style="text;strokeColor=none;fillColor=none;align=left;verticalAlign=middle;spacingLeft=4;spacingRight=4;overflow=hidden;points=[[0,0.5],[1,0.5]];portConstraint=eastwest;rotatable=0;whiteSpace=wrap;html=1;" vertex="1" parent="1">
          <mxGeometry x="-631" y="815" width="310" height="30" as="geometry" />
        </mxCell>
        <mxCell id="wEV3beaxD2OYFlqm1hYh-100" value="Ingin menggunakan CPU" style="text;strokeColor=none;fillColor=none;align=left;verticalAlign=middle;spacingLeft=4;spacingRight=4;overflow=hidden;points=[[0,0.5],[1,0.5]];portConstraint=eastwest;rotatable=0;whiteSpace=wrap;html=1;" vertex="1" parent="1">
          <mxGeometry x="-631" y="845" width="290" height="30" as="geometry" />
        </mxCell>
        <mxCell id="wEV3beaxD2OYFlqm1hYh-101" value="Jika 1 jangan berganti state" style="text;strokeColor=none;fillColor=none;align=left;verticalAlign=middle;spacingLeft=4;spacingRight=4;overflow=hidden;points=[[0,0.5],[1,0.5]];portConstraint=eastwest;rotatable=0;whiteSpace=wrap;html=1;" vertex="1" parent="1">
          <mxGeometry x="-631" y="875" width="290" height="30" as="geometry" />
        </mxCell>
        <mxCell id="wEV3beaxD2OYFlqm1hYh-102" value="" style="endArrow=classic;html=1;rounded=0;exitX=1.014;exitY=0.292;exitDx=0;exitDy=0;exitPerimeter=0;entryX=0.002;entryY=0.149;entryDx=0;entryDy=0;entryPerimeter=0;" edge="1" parent="1" source="wEV3beaxD2OYFlqm1hYh-91">
          <mxGeometry width="50" height="50" relative="1" as="geometry">
            <mxPoint x="9" y="970" as="sourcePoint" />
            <mxPoint x="-5" y="801" as="targetPoint" />
          </mxGeometry>
        </mxCell>
        <mxCell id="wEV3beaxD2OYFlqm1hYh-103" value="" style="endArrow=classic;html=1;rounded=0;entryX=-0.006;entryY=0.212;entryDx=0;entryDy=0;entryPerimeter=0;" edge="1" parent="1">
          <mxGeometry width="50" height="50" relative="1" as="geometry">
            <mxPoint x="-191" y="827" as="sourcePoint" />
            <mxPoint x="-8" y="827" as="targetPoint" />
          </mxGeometry>
        </mxCell>
        <mxCell id="wEV3beaxD2OYFlqm1hYh-104" value="" style="endArrow=classic;html=1;rounded=0;entryX=-0.006;entryY=0.212;entryDx=0;entryDy=0;entryPerimeter=0;" edge="1" parent="1">
          <mxGeometry width="50" height="50" relative="1" as="geometry">
            <mxPoint x="-191" y="859.63" as="sourcePoint" />
            <mxPoint x="-8" y="859.63" as="targetPoint" />
          </mxGeometry>
        </mxCell>
        <mxCell id="wEV3beaxD2OYFlqm1hYh-105" value="" style="endArrow=classic;html=1;rounded=0;exitX=0;exitY=0.358;exitDx=0;exitDy=0;exitPerimeter=0;entryX=1.001;entryY=0.704;entryDx=0;entryDy=0;entryPerimeter=0;" edge="1" parent="1" target="wEV3beaxD2OYFlqm1hYh-91">
          <mxGeometry width="50" height="50" relative="1" as="geometry">
            <mxPoint x="-6" y="887" as="sourcePoint" />
            <mxPoint x="-191" y="890" as="targetPoint" />
          </mxGeometry>
        </mxCell>
        <mxCell id="wEV3beaxD2OYFlqm1hYh-106" value="DATA_OUT" style="text;html=1;strokeColor=none;fillColor=none;align=left;verticalAlign=middle;whiteSpace=wrap;rounded=0;" vertex="1" parent="1">
          <mxGeometry x="-316" y="905" width="110" height="30" as="geometry" />
        </mxCell>
        <mxCell id="wEV3beaxD2OYFlqm1hYh-107" value="" style="endArrow=classic;html=1;rounded=0;entryX=1.019;entryY=0.86;entryDx=0;entryDy=0;entryPerimeter=0;exitX=-0.002;exitY=0.436;exitDx=0;exitDy=0;exitPerimeter=0;" edge="1" parent="1" target="wEV3beaxD2OYFlqm1hYh-91">
          <mxGeometry width="50" height="50" relative="1" as="geometry">
            <mxPoint x="-7" y="919" as="sourcePoint" />
            <mxPoint x="-171" y="870" as="targetPoint" />
          </mxGeometry>
        </mxCell>
        <mxCell id="wEV3beaxD2OYFlqm1hYh-108" value="9" style="text;html=1;strokeColor=none;fillColor=none;align=center;verticalAlign=middle;whiteSpace=wrap;rounded=0;" vertex="1" parent="1">
          <mxGeometry x="-141" y="740" width="60" height="30" as="geometry" />
        </mxCell>
        <mxCell id="wEV3beaxD2OYFlqm1hYh-109" value="64" style="text;html=1;strokeColor=none;fillColor=none;align=center;verticalAlign=middle;whiteSpace=wrap;rounded=0;" vertex="1" parent="1">
          <mxGeometry x="-141" y="775" width="60" height="30" as="geometry" />
        </mxCell>
        <mxCell id="wEV3beaxD2OYFlqm1hYh-110" value="1" style="text;html=1;strokeColor=none;fillColor=none;align=center;verticalAlign=middle;whiteSpace=wrap;rounded=0;" vertex="1" parent="1">
          <mxGeometry x="-141" y="805" width="60" height="30" as="geometry" />
        </mxCell>
        <mxCell id="wEV3beaxD2OYFlqm1hYh-111" value="1" style="text;html=1;strokeColor=none;fillColor=none;align=center;verticalAlign=middle;whiteSpace=wrap;rounded=0;" vertex="1" parent="1">
          <mxGeometry x="-141" y="835" width="60" height="30" as="geometry" />
        </mxCell>
        <mxCell id="wEV3beaxD2OYFlqm1hYh-112" value="1" style="text;html=1;strokeColor=none;fillColor=none;align=center;verticalAlign=middle;whiteSpace=wrap;rounded=0;" vertex="1" parent="1">
          <mxGeometry x="-141" y="860" width="60" height="30" as="geometry" />
        </mxCell>
        <mxCell id="wEV3beaxD2OYFlqm1hYh-113" value="64" style="text;html=1;strokeColor=none;fillColor=none;align=center;verticalAlign=middle;whiteSpace=wrap;rounded=0;" vertex="1" parent="1">
          <mxGeometry x="-141" y="890" width="60" height="30" as="geometry" />
        </mxCell>
        <mxCell id="wEV3beaxD2OYFlqm1hYh-114" value="31 downto 0&amp;nbsp; timestamp, 61 downto 32 parkiran terpakai" style="text;strokeColor=none;fillColor=none;align=left;verticalAlign=middle;spacingLeft=4;spacingRight=4;overflow=hidden;points=[[0,0.5],[1,0.5]];portConstraint=eastwest;rotatable=0;whiteSpace=wrap;html=1;" vertex="1" parent="1">
          <mxGeometry x="-651" y="905" width="310" height="30" as="geometry" />
        </mxCell>
        <mxCell id="wEV3beaxD2OYFlqm1hYh-115" value="DATA_OUT2" style="text;html=1;strokeColor=none;fillColor=none;align=left;verticalAlign=middle;whiteSpace=wrap;rounded=0;" vertex="1" parent="1">
          <mxGeometry x="5" y="900" width="110" height="30" as="geometry" />
        </mxCell>
        <mxCell id="wEV3beaxD2OYFlqm1hYh-116" value="LIAT CS 9 : )" style="text;html=1;strokeColor=none;fillColor=none;align=center;verticalAlign=middle;whiteSpace=wrap;rounded=0;" vertex="1" parent="1">
          <mxGeometry x="330" y="560" width="95" height="30" as="geometry" />
        </mxCell>
      </root>
    </mxGraphModel>
  </diagram>
</mxfile>
